<?xml version="1.0" standalone="no"?>
<!DOCTYPE svg PUBLIC "-//W3C//DTD SVG 20010904//EN"
 "http://www.w3.org/TR/2001/REC-SVG-20010904/DTD/svg10.dtd">
<svg version="1.0" xmlns="http://www.w3.org/2000/svg"
 width="352.000000pt" height="352.000000pt" viewBox="0 0 352.000000 352.000000"
 preserveAspectRatio="xMidYMid meet">
<metadata>
Created by potrace 1.11, written by Peter Selinger 2001-2013
</metadata>
<g transform="translate(0.000000,352.000000) scale(0.100000,-0.100000)"
fill="#000000" stroke="none">
<path d="M1733 3011 c-59 -28 -120 -92 -243 -256 -135 -181 -252 -299 -345
-347 -86 -44 -205 -82 -327 -104 -128 -23 -203 -60 -272 -134 -61 -67 -118
-174 -135 -258 -27 -131 -6 -286 55 -402 83 -158 226 -269 438 -341 50 -17 80
-32 79 -41 -1 -7 -11 -51 -23 -98 -18 -67 -21 -101 -17 -170 13 -211 120 -319
398 -401 64 -19 105 -22 315 -26 215 -5 253 -3 351 16 316 60 535 196 626 388
28 60 32 78 32 153 0 80 -3 90 -44 175 -85 177 -103 262 -78 381 31 144 85
222 340 488 267 278 327 365 327 471 0 31 -6 69 -14 84 -31 60 -145 122 -260
142 -164 28 -443 -19 -618 -104 -84 -41 -89 -42 -92 -22 -2 11 -9 51 -14 89
-30 196 -167 322 -362 333 -60 3 -83 0 -117 -16z"/>
</g>
</svg>
